<svg width="190" height="86" viewBox="0 0 190 86" fill="none" xmlns="http://www.w3.org/2000/svg">
<rect x="42.0746" y="1.99825" width="58" height="58" rx="7" transform="rotate(43.7071 42.0746 1.99825)" fill="white" stroke="#0094FF" stroke-width="2"/>
<g clip-path="url(#clip0_2_10)">
<path d="M33.6875 62.75C30.2608 61.136 27.3126 58.6589 25.1321 55.5617C22.9516 52.4645 21.6138 48.8536 21.25 45.0833H18.125C19.1875 57.9167 29.9167 68 43.0208 68L44.3958 67.9375L36.4583 60L33.6875 62.75V62.75ZM35.5417 49.1667C35.1458 49.1667 34.7708 49.1042 34.4583 49C34.1472 48.8966 33.8626 48.7259 33.625 48.5C33.3958 48.2917 33.2083 48.0417 33.0833 47.7292C32.9583 47.4375 32.8958 47.1042 32.8958 46.75H30.1875C30.1875 47.5 30.3333 48.1667 30.625 48.7292C30.9167 49.2917 31.3125 49.7708 31.7917 50.1667C32.2917 50.5417 32.8542 50.8333 33.5 51.0208C34.125 51.2292 34.7917 51.3333 35.5 51.3333C36.2708 51.3333 37 51.2292 37.6458 51.0208C38.3125 50.8125 38.8958 50.5 39.375 50.1042C39.8542 49.7083 40.25 49.2083 40.5208 48.6042C40.7917 48 40.9375 47.3333 40.9375 46.5833C40.9375 46.1875 40.8958 45.7917 40.7917 45.4167C40.6928 45.0381 40.5308 44.6789 40.3125 44.3542C40.1042 44.0208 39.8125 43.7292 39.4792 43.4583C39.125 43.1875 38.7083 42.9792 38.2083 42.8125C38.9614 42.477 39.6042 41.9353 40.0625 41.25C40.2708 40.9375 40.4167 40.625 40.5208 40.2917C40.625 39.9583 40.6667 39.625 40.6667 39.2917C40.6667 38.5417 40.5417 37.875 40.2917 37.2917C40.0417 36.7083 39.6875 36.2292 39.2292 35.8542C38.8125 35.4583 38.25 35.1667 37.625 34.9583C36.9792 34.7708 36.2708 34.6667 35.5 34.6667C34.75 34.6667 34.0625 34.7708 33.4167 35C32.7917 35.2292 32.2292 35.5417 31.7708 35.9375C31.3333 36.3333 30.9792 36.7917 30.7083 37.3333C30.4583 37.875 30.3333 38.4583 30.3333 39.1042H33.0417C33.0417 38.75 33.1042 38.4375 33.2292 38.1667C33.3542 37.8958 33.5208 37.6458 33.75 37.4583C33.9792 37.2708 34.2292 37.1042 34.5417 37C34.8542 36.8958 35.1667 36.8333 35.5417 36.8333C36.375 36.8333 37 37.0417 37.3958 37.4792C37.7917 37.8958 38 38.5 38 39.2708C38 39.6458 37.9375 39.9792 37.8333 40.2917C37.7292 40.6042 37.5417 40.8542 37.3125 41.0625C37.0833 41.2708 36.7917 41.4375 36.4583 41.5625C36.125 41.6875 35.7083 41.75 35.25 41.75H33.6458V43.8958H35.25C35.7083 43.8958 36.125 43.9375 36.5 44.0417C36.875 44.1458 37.1875 44.3125 37.4375 44.5208C37.6875 44.75 37.8958 45.0208 38.0417 45.3542C38.1875 45.6875 38.25 46.0833 38.25 46.5417C38.25 47.3958 38 48.0417 37.5208 48.4792C37.0417 48.9583 36.375 49.1667 35.5417 49.1667V49.1667ZM53.3542 36.8333C52.6875 36.1458 51.8958 35.6042 50.9792 35.2292C50.0625 34.8542 49.0417 34.6667 47.9167 34.6667H43V51.3333H47.7917C48.9375 51.3333 50 51.1458 50.9375 50.7708C51.875 50.3958 52.6875 49.875 53.3542 49.1875C54.0208 48.5 54.5417 47.6667 54.8958 46.7083C55.25 45.7292 55.4375 44.6458 55.4375 43.4375V42.6042C55.4375 41.3958 55.25 40.3125 54.8958 39.3333C54.5417 38.3542 54.0208 37.5208 53.3542 36.8333ZM52.5417 43.4167C52.5417 44.2917 52.4375 45.0625 52.25 45.7708C52.0417 46.4583 51.75 47.0625 51.3542 47.5417C50.9583 48.0208 50.4583 48.3958 49.875 48.6458C49.2708 48.8958 48.5833 49.0208 47.8125 49.0208H45.9167V37H47.9375C49.4375 37 50.5833 37.4792 51.3542 38.4375C52.1458 39.3958 52.5417 40.7708 52.5417 42.5833V43.4167V43.4167ZM43.0208 18L41.6458 18.0625L49.5833 26L52.3542 23.2292C59.1667 26.4583 64.0417 33.0625 64.7708 40.8958H67.8958C66.8542 28.0833 56.125 18 43.0208 18Z" fill="#0094FF"/>
</g>
<path d="M93.92 45.3C93.92 46.0067 93.7733 46.66 93.48 47.26C93.1867 47.8467 92.7133 48.32 92.06 48.68C91.42 49.0267 90.56 49.2 89.48 49.2C88.8667 49.2 88.2267 49.1267 87.56 48.98C86.9067 48.8333 86.1867 48.5867 85.4 48.24L86.14 46.18C86.8467 46.4333 87.44 46.6333 87.92 46.78C88.4133 46.9133 88.9067 46.98 89.4 46.98C90.1067 46.98 90.64 46.84 91 46.56C91.3733 46.2667 91.56 45.8133 91.56 45.2V44.92C91.56 44.4133 91.4 44.0067 91.08 43.7C90.7733 43.38 90.2933 43.22 89.64 43.22H87.52V41.06H89.64C90.2667 41.06 90.7267 40.9133 91.02 40.62C91.3133 40.3133 91.46 39.92 91.46 39.44V39.16C91.46 38.5467 91.2867 38.1067 90.94 37.84C90.6067 37.56 90.1133 37.42 89.46 37.42C88.9933 37.42 88.52 37.4867 88.04 37.62C87.5733 37.74 87.0067 37.9267 86.34 38.18L85.6 36.12C86.3467 35.7733 87.04 35.5333 87.68 35.4C88.32 35.2667 88.94 35.2 89.54 35.2C90.5667 35.2 91.3933 35.3733 92.02 35.72C92.6467 36.0667 93.1 36.5333 93.38 37.12C93.6733 37.7067 93.82 38.3533 93.82 39.06V39.34C93.82 39.9667 93.66 40.52 93.34 41C93.0333 41.4667 92.6267 41.84 92.12 42.12C92.6667 42.4133 93.1 42.8067 93.42 43.3C93.7533 43.78 93.92 44.3533 93.92 45.02V45.3ZM96.8995 49V35.4H101.5C103.126 35.4 104.366 35.8533 105.22 36.76C106.073 37.6667 106.5 39 106.5 40.76V43.62C106.5 45.3933 106.073 46.7333 105.22 47.64C104.366 48.5467 103.126 49 101.5 49H96.8995ZM101.4 37.7H99.2995V46.7H101.4C102.346 46.7 103.02 46.4667 103.42 46C103.833 45.5333 104.04 44.74 104.04 43.62V40.76C104.04 39.6533 103.833 38.8667 103.42 38.4C103.02 37.9333 102.346 37.7 101.4 37.7ZM111.513 43.62C111.513 44.5933 111.726 45.3933 112.153 46.02C112.58 46.6333 113.28 46.94 114.253 46.94C114.653 46.94 115.066 46.8867 115.493 46.78C115.933 46.6733 116.473 46.4933 117.113 46.24L117.853 48.32C117.133 48.64 116.466 48.8667 115.853 49C115.253 49.1333 114.673 49.2 114.113 49.2C112.993 49.2 112.053 48.96 111.293 48.48C110.546 48 109.986 47.34 109.613 46.5C109.24 45.66 109.053 44.7 109.053 43.62V40.76C109.053 39.68 109.24 38.72 109.613 37.88C109.986 37.04 110.546 36.3867 111.293 35.92C112.053 35.44 112.993 35.2 114.113 35.2C114.66 35.2 115.226 35.2667 115.813 35.4C116.4 35.52 117.04 35.7333 117.733 36.04L116.993 38.16C116.38 37.9067 115.866 37.7267 115.453 37.62C115.04 37.5133 114.64 37.46 114.253 37.46C113.28 37.46 112.58 37.7667 112.153 38.38C111.726 38.9933 111.513 39.7867 111.513 40.76V43.62ZM129.879 40.76V43.62C129.879 45.3533 129.446 46.72 128.579 47.72C127.712 48.7067 126.446 49.2 124.779 49.2C123.099 49.2 121.826 48.7067 120.959 47.72C120.106 46.72 119.679 45.3533 119.679 43.62V40.76C119.679 39.0267 120.106 37.6667 120.959 36.68C121.826 35.6933 123.099 35.2 124.779 35.2C126.446 35.2 127.712 35.6933 128.579 36.68C129.446 37.6667 129.879 39.0267 129.879 40.76ZM127.419 40.76C127.419 39.6667 127.206 38.8467 126.779 38.3C126.352 37.74 125.686 37.46 124.779 37.46C123.872 37.46 123.206 37.74 122.779 38.3C122.352 38.8467 122.139 39.6667 122.139 40.76V43.62C122.139 44.7133 122.352 45.54 122.779 46.1C123.206 46.66 123.872 46.94 124.779 46.94C125.686 46.94 126.352 46.66 126.779 46.1C127.206 45.54 127.419 44.7133 127.419 43.62V40.76ZM133.052 49V35.4H135.252C136.305 36.7733 137.305 38.2267 138.252 39.76C139.199 41.28 140.059 42.8467 140.832 44.46L140.652 40.4V35.4H142.952V49H140.752C139.899 47.32 139.012 45.6333 138.092 43.94C137.185 42.2333 136.219 40.6267 135.192 39.12L135.352 43.8V49H133.052ZM148.544 43.62C148.544 44.5933 148.758 45.3933 149.184 46.02C149.611 46.6333 150.311 46.94 151.284 46.94C151.684 46.94 152.098 46.8867 152.524 46.78C152.964 46.6733 153.504 46.4933 154.144 46.24L154.884 48.32C154.164 48.64 153.498 48.8667 152.884 49C152.284 49.1333 151.704 49.2 151.144 49.2C150.024 49.2 149.084 48.96 148.324 48.48C147.578 48 147.018 47.34 146.644 46.5C146.271 45.66 146.084 44.7 146.084 43.62V40.76C146.084 39.68 146.271 38.72 146.644 37.88C147.018 37.04 147.578 36.3867 148.324 35.92C149.084 35.44 150.024 35.2 151.144 35.2C151.691 35.2 152.258 35.2667 152.844 35.4C153.431 35.52 154.071 35.7333 154.764 36.04L154.024 38.16C153.411 37.9067 152.898 37.7267 152.484 37.62C152.071 37.5133 151.671 37.46 151.284 37.46C150.311 37.46 149.611 37.7667 149.184 38.38C148.758 38.9933 148.544 39.7867 148.544 40.76V43.62ZM165.268 46.7V49H157.388V35.4H165.068V37.7H159.788V40.96H164.468V43.26H159.788V46.7H165.268ZM168.11 49V35.4H172.59C174.017 35.4 175.084 35.76 175.79 36.48C176.51 37.2 176.87 38.16 176.87 39.36V40.42C176.87 41.62 176.51 42.5867 175.79 43.32C175.084 44.04 174.017 44.4 172.59 44.4H170.51V49H168.11ZM172.59 37.7H170.51V42.1H172.59C173.177 42.1 173.624 41.9533 173.93 41.66C174.25 41.3667 174.41 40.9533 174.41 40.42V39.36C174.41 38.84 174.25 38.4333 173.93 38.14C173.624 37.8467 173.177 37.7 172.59 37.7ZM177.975 37.7V35.4H187.975V37.7H184.175V49H181.775V37.7H177.975Z" fill="#0094FF"/>
<defs>
<clipPath id="clip0_2_10">
<rect width="50" height="50" fill="white" transform="translate(18 18)"/>
</clipPath>
</defs>
</svg>
