<svg width="50" height="50" viewBox="0 0 86 86" fill="none" xmlns="http://www.w3.org/2000/svg">
<rect x="42.0746" y="1.99825" width="58" height="58" rx="7" transform="rotate(43.7071 42.0746 1.99825)" fill="white" stroke="#0094FF" stroke-width="2"/>
<g clip-path="url(#clip0_2_8)">
<path d="M33.6875 62.75C30.2608 61.136 27.3126 58.6589 25.1321 55.5617C22.9516 52.4645 21.6138 48.8536 21.25 45.0833H18.125C19.1875 57.9167 29.9167 68 43.0208 68L44.3958 67.9375L36.4583 60L33.6875 62.75V62.75ZM35.5417 49.1667C35.1458 49.1667 34.7708 49.1042 34.4583 49C34.1472 48.8966 33.8626 48.7259 33.625 48.5C33.3958 48.2917 33.2083 48.0417 33.0833 47.7292C32.9583 47.4375 32.8958 47.1042 32.8958 46.75H30.1875C30.1875 47.5 30.3333 48.1667 30.625 48.7292C30.9167 49.2917 31.3125 49.7708 31.7917 50.1667C32.2917 50.5417 32.8542 50.8333 33.5 51.0208C34.125 51.2292 34.7917 51.3333 35.5 51.3333C36.2708 51.3333 37 51.2292 37.6458 51.0208C38.3125 50.8125 38.8958 50.5 39.375 50.1042C39.8542 49.7083 40.25 49.2083 40.5208 48.6042C40.7917 48 40.9375 47.3333 40.9375 46.5833C40.9375 46.1875 40.8958 45.7917 40.7917 45.4167C40.6928 45.0381 40.5308 44.6789 40.3125 44.3542C40.1042 44.0208 39.8125 43.7292 39.4792 43.4583C39.125 43.1875 38.7083 42.9792 38.2083 42.8125C38.9614 42.477 39.6042 41.9353 40.0625 41.25C40.2708 40.9375 40.4167 40.625 40.5208 40.2917C40.625 39.9583 40.6667 39.625 40.6667 39.2917C40.6667 38.5417 40.5417 37.875 40.2917 37.2917C40.0417 36.7083 39.6875 36.2292 39.2292 35.8542C38.8125 35.4583 38.25 35.1667 37.625 34.9583C36.9792 34.7708 36.2708 34.6667 35.5 34.6667C34.75 34.6667 34.0625 34.7708 33.4167 35C32.7917 35.2292 32.2292 35.5417 31.7708 35.9375C31.3333 36.3333 30.9792 36.7917 30.7083 37.3333C30.4583 37.875 30.3333 38.4583 30.3333 39.1042H33.0417C33.0417 38.75 33.1042 38.4375 33.2292 38.1667C33.3542 37.8958 33.5208 37.6458 33.75 37.4583C33.9792 37.2708 34.2292 37.1042 34.5417 37C34.8542 36.8958 35.1667 36.8333 35.5417 36.8333C36.375 36.8333 37 37.0417 37.3958 37.4792C37.7917 37.8958 38 38.5 38 39.2708C38 39.6458 37.9375 39.9792 37.8333 40.2917C37.7292 40.6042 37.5417 40.8542 37.3125 41.0625C37.0833 41.2708 36.7917 41.4375 36.4583 41.5625C36.125 41.6875 35.7083 41.75 35.25 41.75H33.6458V43.8958H35.25C35.7083 43.8958 36.125 43.9375 36.5 44.0417C36.875 44.1458 37.1875 44.3125 37.4375 44.5208C37.6875 44.75 37.8958 45.0208 38.0417 45.3542C38.1875 45.6875 38.25 46.0833 38.25 46.5417C38.25 47.3958 38 48.0417 37.5208 48.4792C37.0417 48.9583 36.375 49.1667 35.5417 49.1667V49.1667ZM53.3542 36.8333C52.6875 36.1458 51.8958 35.6042 50.9792 35.2292C50.0625 34.8542 49.0417 34.6667 47.9167 34.6667H43V51.3333H47.7917C48.9375 51.3333 50 51.1458 50.9375 50.7708C51.875 50.3958 52.6875 49.875 53.3542 49.1875C54.0208 48.5 54.5417 47.6667 54.8958 46.7083C55.25 45.7292 55.4375 44.6458 55.4375 43.4375V42.6042C55.4375 41.3958 55.25 40.3125 54.8958 39.3333C54.5417 38.3542 54.0208 37.5208 53.3542 36.8333ZM52.5417 43.4167C52.5417 44.2917 52.4375 45.0625 52.25 45.7708C52.0417 46.4583 51.75 47.0625 51.3542 47.5417C50.9583 48.0208 50.4583 48.3958 49.875 48.6458C49.2708 48.8958 48.5833 49.0208 47.8125 49.0208H45.9167V37H47.9375C49.4375 37 50.5833 37.4792 51.3542 38.4375C52.1458 39.3958 52.5417 40.7708 52.5417 42.5833V43.4167V43.4167ZM43.0208 18L41.6458 18.0625L49.5833 26L52.3542 23.2292C59.1667 26.4583 64.0417 33.0625 64.7708 40.8958H67.8958C66.8542 28.0833 56.125 18 43.0208 18Z" fill="#0094FF"/>
</g>
<defs>
<clipPath id="clip0_2_8">
<rect width="50" height="50" fill="white" transform="translate(18 18)"/>
</clipPath>
</defs>
</svg>
