<svg width="103" height="15" viewBox="0 0 103 15" fill="none" xmlns="http://www.w3.org/2000/svg">
<path d="M8.92 10.3C8.92 11.0067 8.77333 11.66 8.48 12.26C8.18667 12.8467 7.71333 13.32 7.06 13.68C6.42 14.0267 5.56 14.2 4.48 14.2C3.86667 14.2 3.22667 14.1267 2.56 13.98C1.90667 13.8333 1.18667 13.5867 0.4 13.24L1.14 11.18C1.84667 11.4333 2.44 11.6333 2.92 11.78C3.41333 11.9133 3.90667 11.98 4.4 11.98C5.10667 11.98 5.64 11.84 6 11.56C6.37333 11.2667 6.56 10.8133 6.56 10.2V9.92C6.56 9.41333 6.4 9.00667 6.08 8.7C5.77333 8.38 5.29333 8.22 4.64 8.22H2.52V6.06H4.64C5.26667 6.06 5.72667 5.91333 6.02 5.62C6.31333 5.31333 6.46 4.92 6.46 4.44V4.16C6.46 3.54667 6.28667 3.10667 5.94 2.84C5.60667 2.56 5.11333 2.42 4.46 2.42C3.99333 2.42 3.52 2.48667 3.04 2.62C2.57333 2.74 2.00667 2.92667 1.34 3.18L0.6 1.12C1.34667 0.773333 2.04 0.533333 2.68 0.4C3.32 0.266666 3.94 0.199999 4.54 0.199999C5.56667 0.199999 6.39333 0.373332 7.02 0.719999C7.64667 1.06667 8.1 1.53333 8.38 2.12C8.67333 2.70667 8.82 3.35333 8.82 4.06V4.34C8.82 4.96667 8.66 5.52 8.34 6C8.03333 6.46667 7.62667 6.84 7.12 7.12C7.66667 7.41333 8.1 7.80667 8.42 8.3C8.75333 8.78 8.92 9.35333 8.92 10.02V10.3ZM11.8995 14V0.4H16.4995C18.1262 0.4 19.3662 0.853333 20.2195 1.76C21.0729 2.66667 21.4995 4 21.4995 5.76V8.62C21.4995 10.3933 21.0729 11.7333 20.2195 12.64C19.3662 13.5467 18.1262 14 16.4995 14H11.8995ZM16.3995 2.7H14.2995V11.7H16.3995C17.3462 11.7 18.0195 11.4667 18.4195 11C18.8329 10.5333 19.0395 9.74 19.0395 8.62V5.76C19.0395 4.65333 18.8329 3.86667 18.4195 3.4C18.0195 2.93333 17.3462 2.7 16.3995 2.7ZM26.513 8.62C26.513 9.59333 26.7263 10.3933 27.153 11.02C27.5796 11.6333 28.2796 11.94 29.253 11.94C29.653 11.94 30.0663 11.8867 30.493 11.78C30.933 11.6733 31.473 11.4933 32.113 11.24L32.853 13.32C32.133 13.64 31.4663 13.8667 30.853 14C30.253 14.1333 29.673 14.2 29.113 14.2C27.993 14.2 27.053 13.96 26.293 13.48C25.5463 13 24.9863 12.34 24.613 11.5C24.2396 10.66 24.053 9.7 24.053 8.62V5.76C24.053 4.68 24.2396 3.72 24.613 2.88C24.9863 2.04 25.5463 1.38667 26.293 0.919999C27.053 0.439999 27.993 0.199999 29.113 0.199999C29.6596 0.199999 30.2263 0.266666 30.813 0.4C31.3996 0.52 32.0396 0.733333 32.733 1.04L31.993 3.16C31.3796 2.90667 30.8663 2.72667 30.453 2.62C30.0396 2.51333 29.6396 2.46 29.253 2.46C28.2796 2.46 27.5796 2.76667 27.153 3.38C26.7263 3.99333 26.513 4.78667 26.513 5.76V8.62ZM44.8789 5.76V8.62C44.8789 10.3533 44.4456 11.72 43.5789 12.72C42.7122 13.7067 41.4456 14.2 39.7789 14.2C38.0989 14.2 36.8256 13.7067 35.9589 12.72C35.1056 11.72 34.6789 10.3533 34.6789 8.62V5.76C34.6789 4.02667 35.1056 2.66667 35.9589 1.68C36.8256 0.693332 38.0989 0.199999 39.7789 0.199999C41.4456 0.199999 42.7122 0.693332 43.5789 1.68C44.4456 2.66667 44.8789 4.02667 44.8789 5.76ZM42.4189 5.76C42.4189 4.66667 42.2056 3.84667 41.7789 3.3C41.3522 2.74 40.6856 2.46 39.7789 2.46C38.8722 2.46 38.2056 2.74 37.7789 3.3C37.3522 3.84667 37.1389 4.66667 37.1389 5.76V8.62C37.1389 9.71333 37.3522 10.54 37.7789 11.1C38.2056 11.66 38.8722 11.94 39.7789 11.94C40.6856 11.94 41.3522 11.66 41.7789 11.1C42.2056 10.54 42.4189 9.71333 42.4189 8.62V5.76ZM48.0519 14V0.4H50.2519C51.3052 1.77333 52.3052 3.22667 53.2519 4.76C54.1985 6.28 55.0585 7.84667 55.8319 9.46L55.6519 5.4V0.4H57.9519V14H55.7519C54.8985 12.32 54.0119 10.6333 53.0919 8.94C52.1852 7.23333 51.2185 5.62667 50.1919 4.12L50.3519 8.8V14H48.0519ZM63.5442 8.62C63.5442 9.59333 63.7576 10.3933 64.1842 11.02C64.6109 11.6333 65.3109 11.94 66.2842 11.94C66.6842 11.94 67.0976 11.8867 67.5242 11.78C67.9642 11.6733 68.5042 11.4933 69.1442 11.24L69.8842 13.32C69.1642 13.64 68.4976 13.8667 67.8842 14C67.2842 14.1333 66.7042 14.2 66.1442 14.2C65.0242 14.2 64.0842 13.96 63.3242 13.48C62.5776 13 62.0176 12.34 61.6442 11.5C61.2709 10.66 61.0842 9.7 61.0842 8.62V5.76C61.0842 4.68 61.2709 3.72 61.6442 2.88C62.0176 2.04 62.5776 1.38667 63.3242 0.919999C64.0842 0.439999 65.0242 0.199999 66.1442 0.199999C66.6909 0.199999 67.2576 0.266666 67.8442 0.4C68.4309 0.52 69.0709 0.733333 69.7642 1.04L69.0242 3.16C68.4109 2.90667 67.8976 2.72667 67.4842 2.62C67.0709 2.51333 66.6709 2.46 66.2842 2.46C65.3109 2.46 64.6109 2.76667 64.1842 3.38C63.7576 3.99333 63.5442 4.78667 63.5442 5.76V8.62ZM80.2678 11.7V14H72.3878V0.4H80.0678V2.7H74.7878V5.96H79.4678V8.26H74.7878V11.7H80.2678ZM83.1105 14V0.4H87.5905C89.0171 0.4 90.0838 0.76 90.7905 1.48C91.5105 2.2 91.8705 3.16 91.8705 4.36V5.42C91.8705 6.62 91.5105 7.58667 90.7905 8.32C90.0838 9.04 89.0171 9.4 87.5905 9.4H85.5105V14H83.1105ZM87.5905 2.7H85.5105V7.1H87.5905C88.1771 7.1 88.6238 6.95333 88.9305 6.66C89.2505 6.36667 89.4105 5.95333 89.4105 5.42V4.36C89.4105 3.84 89.2505 3.43333 88.9305 3.14C88.6238 2.84667 88.1771 2.7 87.5905 2.7ZM92.9748 2.7V0.4H102.975V2.7H99.1748V14H96.7748V2.7H92.9748Z" fill="#0094FF"/>
</svg>
